<svg width="154" height="52" viewBox="0 0 154 52" fill="none" xmlns="http://www.w3.org/2000/svg">
<g clip-path="url(#clip0_41_402)">
<path d="M153.795 32.9109C153.659 32.7849 153.492 32.6983 153.31 32.6605H153.269C153.06 32.6367 152.85 32.694 152.682 32.8206C152.597 32.8783 152.524 32.9528 152.468 33.0397C152.412 33.1265 152.375 33.2237 152.358 33.3255C152.352 33.3904 152.331 33.4528 152.296 33.5078C152.261 33.5628 152.213 33.6086 152.157 33.6416C151.828 33.851 150.999 34.0521 148.873 33.8756C147.99 33.7976 147.001 33.6744 145.933 33.502C144.866 33.3296 143.672 33.1325 142.415 32.915C141.282 32.722 140.079 32.5044 138.832 32.3279C137.584 32.1514 136.278 31.942 134.94 31.7737C133.602 31.6054 132.239 31.4659 130.835 31.3632C129.431 31.2606 128.051 31.1826 126.68 31.1662H126.143C123.588 31.1447 121.037 31.3868 118.532 31.8887C116.22 32.3496 113.992 33.1623 111.926 34.2984C112.181 33.8879 114.069 31.589 120.81 27.0857C120.947 26.9873 121.056 26.8558 121.128 26.7036C121.199 26.5513 121.231 26.3833 121.221 26.2154C121.225 26.0381 121.191 25.8621 121.12 25.6996C121.049 25.5371 120.943 25.3923 120.81 25.2753C120.153 24.6842 118.757 24.5323 116.397 24.7991H116.278C112.649 25.5257 108.778 27.3977 105.605 28.9412C105.49 28.9797 105.366 28.9797 105.252 28.9412C105.313 27.6152 105.252 27.1103 104.841 26.9584C104.626 26.8238 104.377 26.7527 104.123 26.7532C103.943 26.7525 103.765 26.7911 103.602 26.8662C103.439 26.9414 103.295 27.0513 103.178 27.1883C102.123 28.3583 100.022 29.1834 97.5503 29.4421C97.8295 29.1506 99.1431 27.4633 99.1431 26.277C99.1431 25.4026 98.3221 24.5077 95.4813 24.5077C91.3762 24.5077 85.7357 26.7162 82.6979 30.0126C82.3861 30.3468 82.0993 30.7036 81.8399 31.08L81.7004 31.1087L81.4171 31.1867V31.2729C80.395 31.8066 74.4384 34.4175 72.2832 34.2943H72.2586C71.7983 34.2115 71.3712 33.9993 71.027 33.6826C71.7085 30.0578 82.3572 22.9518 88.8187 18.9411H89.0157L89.6479 18.9862C90.7276 19.056 91.799 19.1505 92.8335 19.2654C93.868 19.3804 94.8861 19.5076 95.8508 19.6308C96.9017 19.758 97.9033 19.8771 98.8311 19.9797C99.6596 20.078 100.493 20.1315 101.327 20.1398C101.983 20.1537 102.638 20.0944 103.281 19.9633C103.812 19.8629 104.303 19.6105 104.693 19.2366C104.89 19.0325 105.045 18.7915 105.149 18.5273C105.252 18.2631 105.303 17.9809 105.297 17.6972C105.308 17.5944 105.298 17.4904 105.266 17.392C105.234 17.2936 105.182 17.2031 105.112 17.1266C104.99 16.9914 104.827 16.9005 104.648 16.868H104.595C104.488 16.8642 104.382 16.8851 104.286 16.9293C104.189 16.9735 104.103 17.0397 104.036 17.1225C103.912 17.2702 103.84 17.4549 103.831 17.648C103.835 17.7977 103.784 17.9437 103.687 18.0585C103.499 18.2473 102.932 18.5675 101.224 18.5388C100.522 18.5388 99.7342 18.4731 98.8763 18.3746C98.0183 18.2761 97.0577 18.157 96.0396 18.0215C95.1283 17.9066 94.1554 17.7876 93.166 17.6767C92.5338 17.6028 91.8811 17.5413 91.2202 17.4879C92.5954 16.6669 93.5191 16.1209 93.7079 16.0141C94.3524 15.8007 95.7605 15.2465 95.7605 14.4337C95.7605 13.7112 95.1283 12.9804 93.9173 12.9804C93.5478 12.9804 92.9115 12.9804 86.6224 17.2621C85.5469 17.2621 84.4713 17.299 83.4163 17.3934L83.0058 17.4345C80.9404 17.624 78.9111 18.0978 76.9754 18.8426C74.8478 19.67 72.9199 20.9391 71.3185 22.566C71.1093 22.9554 71.0467 23.4069 71.142 23.8385C71.1611 23.9471 71.2095 24.0483 71.2818 24.1315C71.3541 24.2146 71.4477 24.2766 71.5525 24.3106C71.6018 24.3252 71.653 24.3321 71.7044 24.3311C72.0267 24.2854 72.3199 24.1197 72.5254 23.8672C78.0345 19.6554 79.381 19.3516 84.0485 19.0314C83.3041 19.5486 82.4995 20.1125 81.6347 20.7228L80.3046 21.6464C76.2898 24.52 71.6839 28.2146 69.7257 31.3304C68.1369 32.0897 66.4895 32.7198 64.7995 33.2146C58.7034 34.8567 56.6796 34.2122 56.0105 33.6252C58.6829 32.8329 64.7708 30.0291 66.1132 29.2245C69.0525 27.3854 69.2126 26.1702 68.8308 25.4765C67.8702 23.7277 62.7716 24.4215 57.4719 27.02C55.3988 28.0422 53.5145 29.6432 52.7879 30.8542C48.2189 33.0012 45.4562 33.9084 43.6417 33.8632C42.1146 33.814 41.8067 33.3091 41.8067 32.5086C41.8042 32.0969 41.8809 31.6885 42.0325 31.3057C44.6023 30.0742 50.8585 26.979 56.4004 23.7769C66.4211 17.9682 66.5976 16.0716 66.6633 15.4517C66.6893 15.2139 66.6499 14.9736 66.5494 14.7566C66.4488 14.5395 66.2909 14.3541 66.0927 14.2202C65.2716 13.6167 62.7798 13.5798 59.1139 14.8483C54.5983 16.4041 43.9249 21.827 39.9224 28.6908C39.787 28.9248 39.6146 29.245 39.4462 29.6144C38.4446 29.9264 37.2993 30.3041 36.0431 30.7187C31.2729 32.2951 25.341 34.2574 21.2359 34.4708C18.7728 34.6022 14.9345 33.8756 14.4747 31.3468C14.4354 30.9733 14.4719 30.5958 14.5819 30.2368C14.692 29.8777 14.8733 29.5446 15.1151 29.2573C17.2703 26.24 23.9329 23.1365 30.3287 22.1677C31.7612 22.7458 33.3012 23.009 34.8444 22.9395C35.1769 22.9395 36.86 22.7958 37.4224 22.0815C37.5055 21.9785 37.5654 21.8589 37.598 21.7306C37.6306 21.6024 37.6351 21.4687 37.6113 21.3385C37.4265 20.3287 35.6695 20.2096 34.2245 20.2876C32.9068 20.3574 32.0816 20.3984 31.1046 20.5052C30.9914 20.3933 30.9035 20.2585 30.8468 20.1097C30.7902 19.961 30.7661 19.8019 30.7762 19.6431C30.8337 18.9616 31.5357 18.1283 32.7097 17.336C33.6867 17.4633 34.713 17.648 35.7968 17.845C38.2599 18.2884 41.0144 18.7892 43.8059 18.6661C45.4028 18.5799 49.8446 17.9764 51.2239 16.203C51.397 16.0054 51.5236 15.7716 51.5947 15.5188C51.6657 15.2659 51.6793 15.0003 51.6344 14.7415C51.1295 11.9665 45.214 12.1964 44.5407 12.2333C40.3993 12.4624 36.3209 13.3507 32.4593 14.8647C31.0719 14.0001 29.562 13.3496 27.9806 12.9353C26.0162 12.4317 23.9944 12.1874 21.9666 12.2087H21.5561C20.4764 12.2087 19.3762 12.2867 18.272 12.4057C17.1677 12.5248 16.1044 12.6644 15.0617 12.8163C14.019 12.9681 12.9846 13.1693 12.0034 13.3663C11.0223 13.5634 10.0781 13.7768 9.1873 13.9574C8.20207 14.175 7.27431 14.368 6.43276 14.5445C5.59121 14.721 4.82765 14.836 4.13799 14.914C2.45078 15.0987 1.87196 14.8647 1.67491 14.7046C1.62943 14.665 1.5925 14.6165 1.56638 14.5622C1.54026 14.5078 1.52551 14.4488 1.52302 14.3885C1.5048 14.1962 1.4155 14.0176 1.2726 13.8877C1.19906 13.8148 1.10969 13.7598 1.01143 13.727C0.913176 13.6943 0.808682 13.6846 0.706091 13.6988H0.656832C0.486999 13.7434 0.335932 13.8412 0.225798 13.978C0.160023 14.056 0.112592 14.1477 0.0870139 14.2465C0.0614356 14.3453 0.0583559 14.4485 0.0780063 14.5486C0.0946848 14.8165 0.167223 15.078 0.290943 15.3163C0.414662 15.5545 0.586827 15.7643 0.796405 15.932C1.21524 16.2457 1.7154 16.4323 2.23731 16.4698C2.87813 16.528 3.52319 16.5212 4.16262 16.4493C4.98008 16.3639 5.79261 16.2365 6.59696 16.0675C7.48777 15.8869 8.45659 15.6898 9.49518 15.4682C10.4435 15.2629 11.4287 15.0576 12.4304 14.8524H12.5207C15.3286 14.2695 24.1259 12.7998 30.3657 15.7473C30.2076 15.8713 30.0416 15.9852 29.869 16.088C28.1982 16.9091 27.2088 18.0257 27.1473 19.1135C27.1393 19.4494 27.2063 19.7828 27.3434 20.0896C27.4804 20.3963 27.6841 20.6687 27.9396 20.8869C21.6135 21.8721 14.0355 24.4132 11.4985 27.9272C11.1247 28.4011 10.8541 28.948 10.7042 29.5327C10.5543 30.1173 10.5284 30.7269 10.6282 31.3222C11.2727 34.869 15.9649 36.0882 20.2588 36.0882C20.6694 36.0882 21.0593 36.0883 21.4534 36.0554C26.3344 35.7968 32.2171 34.0028 35.2918 32.9273C36.3797 32.5537 37.6441 32.1062 38.8387 31.6136C38.6773 32.4074 38.7902 33.2324 39.1589 33.9536C39.8321 35.1605 41.3469 35.7968 43.6745 35.846H43.8182C46.4291 35.846 50.1155 34.323 52.48 33.2064C52.5598 33.4388 52.6747 33.6576 52.8208 33.8551C53.8019 35.3493 55.9694 36.1211 59.1427 36.1211C59.6681 36.1211 60.2264 36.1211 60.7847 36.0554C63.5375 35.7762 66.2292 35.0655 68.761 33.9495C68.7478 34.1393 68.7721 34.3298 68.8327 34.5101C68.8933 34.6905 68.9889 34.8571 69.114 35.0004C69.6272 35.612 70.6206 35.924 72.0574 35.924H72.1026C72.2093 35.924 72.3243 35.924 72.4392 35.924C74.4302 35.924 77.9729 34.5283 80.982 33.1572C80.9412 33.4137 80.9288 33.6738 80.945 33.933C81.0436 35.1194 82.0042 35.7229 83.8186 35.7229C89.6602 35.7229 94.9559 31.6177 95.0051 31.5562C95.0544 31.4946 95.1447 31.4412 95.2063 31.3879C95.3116 31.2662 95.4422 31.1689 95.5889 31.103C95.7357 31.037 95.8951 31.004 96.056 31.0061C98.0599 31.0218 100.051 30.6855 101.939 30.0126C100.52 31.7593 98.8772 33.3121 97.0536 34.6309C96.9257 34.7036 96.8261 34.8174 96.771 34.9537C96.7159 35.0901 96.7084 35.241 96.7498 35.3822C96.8542 35.5782 97.0096 35.7424 97.1997 35.8573C97.3898 35.9722 97.6074 36.0335 97.8294 36.0349C98.5561 36.0349 98.9912 35.6244 99.5906 35.0291C99.9887 34.6293 100.408 34.251 100.847 33.8961C105.371 30.3794 110.665 27.9875 116.294 26.9174L116.073 27.0611L116.036 27.0898C112.238 29.8854 109.332 32.1843 109.332 34.1999C109.332 35.2385 110.305 35.9938 111.795 36.1334H111.926C112.042 36.1333 112.156 36.1181 112.267 36.0882C112.327 36.0817 112.385 36.0651 112.44 36.039C122.493 32.0036 128.499 32.1802 133.971 33.0382C134.14 33.113 134.32 33.1588 134.505 33.1736L135.207 33.2721C135.365 33.2997 135.526 33.3107 135.687 33.3049C136.623 33.4322 137.547 33.5636 138.45 33.7155C139.726 33.9207 140.983 34.126 142.194 34.3353C143.515 34.5543 144.747 34.7527 145.888 34.9306C147.029 35.1112 148.068 35.2385 148.971 35.3124C149.776 35.3776 150.584 35.3776 151.389 35.3124C152.005 35.2836 152.606 35.1091 153.142 34.8033C153.393 34.6584 153.606 34.4566 153.764 34.2141C153.922 33.9717 154.021 33.6954 154.053 33.4076C154.051 33.3105 154.027 33.2152 153.982 33.1291C153.937 33.0429 153.873 32.9682 153.795 32.9109V32.9109ZM88.8392 27.8082C88.9542 29.1916 90.4813 30.2712 92.9197 30.7885C91.1135 31.9667 87.5379 34.0439 84.7095 34.0726H84.6848C84.5636 34.0829 84.4427 34.0494 84.3441 33.9782C84.2627 33.8684 84.2246 33.7325 84.2374 33.5964C84.2291 31.6055 86.4459 29.3312 88.8351 27.7918L88.8392 27.8082ZM90.9944 27.6317C90.9944 27.4141 91.6389 25.9486 94.3647 25.9486C94.7547 25.9486 96.0068 26.0183 96.0068 26.942C96.0068 27.2827 95.8138 28.0545 94.533 29.4625C92.0905 29.0315 90.9862 28.2351 90.9862 27.6152L90.9944 27.6317ZM64.9268 27.0282C64.9842 27.0234 65.0419 27.0234 65.0992 27.0282C64.935 27.2499 64.3562 27.8492 62.3324 28.896C60.4289 29.8223 58.4616 30.6111 56.4456 31.2565C57.4477 30.1546 58.6535 29.2569 59.9965 28.6128C62.6608 27.3279 64.3028 27.0118 64.9227 27.0118L64.9268 27.0282ZM43.5021 28.6374C46.815 24.327 54.0892 19.2285 59.1016 17.1677C61.0803 16.3056 62.2215 16.0798 62.7634 16.0798C62.8782 16.0714 62.9934 16.0897 63.1 16.1332V16.1332C63.1095 16.1308 63.1193 16.1308 63.1288 16.1332C63.1288 16.2646 62.8537 17.4715 55.329 22.0446C51.2444 24.5569 46.6261 27.0529 43.498 28.621L43.5021 28.6374ZM37.0571 16.5478C36.3469 16.4164 35.6203 16.281 34.8731 16.1619C37.1951 15.0707 39.6728 14.3478 42.2172 14.019H42.3773C48.8265 13.6455 49.356 14.7949 49.4094 15.0289C49.4219 15.112 49.4155 15.197 49.3906 15.2773C49.3658 15.3576 49.3231 15.4313 49.2657 15.4928C48.5186 16.441 45.6039 17.0856 43.2353 17.2128C41.1704 17.3114 39.1671 16.9255 37.0529 16.5314L37.0571 16.5478Z" fill="white"/>
<path d="M52.3979 11.0716C64.389 -7.81205 93.6094 17.7054 109.168 8.5715C96.0766 10.2546 59.7461 -13.2021 52.3979 11.0716Z" fill="white"/>
<path d="M94.0363 10.8129C82.0329 11.5354 66.224 -1.82266 54.2165 11.79C69.4342 0.890833 81.9549 16.7818 94.0363 10.8129Z" fill="white"/>
<path d="M103.261 8.54689C102.308 8.67646 101.348 8.73954 100.387 8.73571C95.1734 8.73571 89.1512 7.04851 83.3219 5.41467C77.3941 3.77262 71.2651 2.03204 65.834 2.03204C61.7863 2.03204 58.4448 3.00493 55.7559 4.9795C54.6459 6.26053 53.7567 7.71719 53.1245 9.28989C56.1664 5.63632 60.3455 3.8547 65.8504 3.8547C71.2815 3.8547 77.4105 5.57475 83.3383 7.23732C89.1676 8.87938 95.1898 10.5584 100.403 10.5584C103.326 10.5584 105.793 10.0371 107.912 8.96562C107.747 8.96562 107.579 8.96562 107.411 8.96562C106.018 8.94826 104.629 8.80814 103.261 8.54689Z" fill="white"/>
<path d="M87.895 11.0715C84.6109 11.0715 81.298 10.0781 77.7717 9.01896C73.995 7.89005 70.091 6.72827 65.9654 6.72827C63.7461 6.71879 61.5415 7.08809 59.4464 7.82025C58.1919 8.52071 57.0283 9.37278 55.9817 10.3572C59.0089 8.58342 62.4568 7.6548 65.9654 7.66836C70.091 7.66836 73.995 8.8342 77.7717 9.959C81.298 11.0099 84.6273 12.0116 87.895 12.0116C89.654 12.0284 91.3987 11.6934 93.0264 11.0263C92.1533 11.0184 91.2814 10.9582 90.4155 10.8457C89.5839 10.9972 88.7403 11.0727 87.895 11.0715V11.0715Z" fill="white"/>
<path d="M113.006 43.342C113.011 43.3636 113.011 43.3861 113.006 43.4077C112.988 43.4297 112.964 43.4455 112.936 43.4529C112.883 43.4679 112.828 43.4762 112.772 43.4775H112.238C112.188 43.4743 112.138 43.4646 112.091 43.4488C112.062 43.4392 112.037 43.4222 112.017 43.3995C112.002 43.3777 111.99 43.3542 111.98 43.3297L111.569 42.3198C111.52 42.209 111.471 42.1064 111.422 42.0161C111.376 41.9361 111.32 41.8617 111.257 41.7944C111.197 41.7371 111.126 41.6924 111.048 41.663C110.962 41.63 110.869 41.6147 110.777 41.6178H110.477V43.3379C110.477 43.3607 110.468 43.3824 110.453 43.3995C110.432 43.4219 110.405 43.4376 110.375 43.4446C110.326 43.4586 110.277 43.4681 110.227 43.4734C110.071 43.4843 109.915 43.4843 109.759 43.4734C109.708 43.4681 109.657 43.4585 109.607 43.4446C109.578 43.4375 109.553 43.4218 109.533 43.3995C109.518 43.3824 109.509 43.3607 109.509 43.3379V39.2328C109.505 39.192 109.51 39.151 109.525 39.1127C109.539 39.0743 109.561 39.0396 109.591 39.0111C109.649 38.9647 109.721 38.94 109.796 38.9413H111.027H111.335H111.557C111.733 38.9644 111.906 39.0099 112.07 39.0768C112.222 39.1298 112.362 39.2136 112.481 39.3231C112.588 39.4225 112.672 39.5445 112.727 39.6802C112.786 39.832 112.813 39.9938 112.809 40.1564C112.812 40.2954 112.792 40.434 112.752 40.5669C112.711 40.6875 112.65 40.8 112.571 40.8994C112.491 41.0008 112.394 41.087 112.284 41.1539C112.156 41.232 112.018 41.2915 111.873 41.3305C111.943 41.3632 112.01 41.4017 112.074 41.4454C112.138 41.4976 112.197 41.5552 112.251 41.6178C112.309 41.6887 112.361 41.7642 112.407 41.8436C112.456 41.9298 112.501 42.0242 112.55 42.131L112.961 43.0218C112.989 43.0848 113.014 43.1492 113.035 43.2147C113.033 43.2586 113.024 43.3018 113.006 43.342V43.342ZM111.775 40.2796C111.778 40.1458 111.741 40.0141 111.668 39.9019C111.582 39.7904 111.457 39.7144 111.319 39.6884C111.264 39.6735 111.207 39.6639 111.151 39.6597C111.064 39.6543 110.978 39.6543 110.892 39.6597H110.461V40.9405H110.954C111.074 40.9418 111.194 40.9265 111.311 40.8953C111.405 40.867 111.493 40.8211 111.569 40.7599C111.637 40.7064 111.69 40.6374 111.725 40.5587C111.754 40.4756 111.766 40.3879 111.762 40.3001L111.775 40.2796Z" fill="white"/>
<path d="M120.597 43.1039C120.601 43.1599 120.601 43.2162 120.597 43.2722C120.593 43.3105 120.583 43.3479 120.568 43.3831C120.56 43.4079 120.544 43.4294 120.523 43.4447C120.503 43.4512 120.481 43.4512 120.461 43.4447H118.08C118.006 43.4482 117.933 43.4249 117.875 43.379C117.846 43.3504 117.823 43.3157 117.809 43.2774C117.795 43.239 117.789 43.198 117.793 43.1573V39.2205C117.789 39.1797 117.795 39.1387 117.809 39.1003C117.823 39.062 117.846 39.0273 117.875 38.9988C117.933 38.9517 118.006 38.927 118.08 38.929H120.453C120.472 38.9233 120.492 38.9233 120.51 38.929C120.531 38.9425 120.547 38.9628 120.555 38.9865C120.568 39.0239 120.578 39.0623 120.584 39.1014C120.584 39.1466 120.584 39.204 120.584 39.2738C120.584 39.3436 120.584 39.3929 120.584 39.438C120.579 39.4759 120.569 39.5131 120.555 39.5489C120.546 39.5729 120.53 39.5941 120.51 39.6104C120.492 39.6164 120.472 39.6164 120.453 39.6104H118.753V40.7147H120.19C120.21 40.7084 120.232 40.7084 120.252 40.7147C120.272 40.7291 120.288 40.7491 120.297 40.7722C120.313 40.8072 120.322 40.8447 120.326 40.8831C120.33 40.9377 120.33 40.9926 120.326 41.0472C120.33 41.1032 120.33 41.1595 120.326 41.2155C120.322 41.2525 120.312 41.2886 120.297 41.3223C120.288 41.3454 120.272 41.3654 120.252 41.3798C120.232 41.3863 120.21 41.3863 120.19 41.3798H118.753V42.6523H120.465C120.485 42.646 120.507 42.646 120.527 42.6523C120.548 42.6676 120.564 42.6891 120.572 42.7139C120.587 42.7491 120.597 42.7865 120.601 42.8248C120.612 42.9176 120.611 43.0115 120.597 43.1039V43.1039Z" fill="white"/>
<path d="M128.257 42.1104C128.262 42.3267 128.214 42.5409 128.117 42.7344C128.027 42.9108 127.898 43.0639 127.739 43.1819C127.571 43.3052 127.382 43.397 127.181 43.4528C126.959 43.5129 126.73 43.5433 126.5 43.5431C126.346 43.5439 126.192 43.5316 126.04 43.5062C125.914 43.4821 125.789 43.4505 125.666 43.4117C125.574 43.382 125.485 43.3436 125.4 43.2968C125.343 43.2705 125.29 43.236 125.244 43.1942C125.207 43.159 125.182 43.1129 125.174 43.0628C125.166 42.9809 125.166 42.8984 125.174 42.8165C125.174 42.7467 125.174 42.6851 125.174 42.6359C125.176 42.5952 125.184 42.5551 125.198 42.5169C125.205 42.4913 125.219 42.4684 125.239 42.4512C125.261 42.445 125.284 42.445 125.305 42.4512C125.357 42.4566 125.407 42.4765 125.449 42.5086L125.691 42.6359C125.805 42.6866 125.923 42.7292 126.044 42.7632C126.197 42.803 126.354 42.8223 126.512 42.8206C126.619 42.821 126.725 42.8072 126.828 42.7796C126.914 42.7556 126.994 42.7166 127.066 42.6646C127.13 42.6184 127.181 42.5561 127.214 42.484C127.251 42.4088 127.27 42.3257 127.267 42.2418C127.27 42.1469 127.239 42.054 127.181 41.9791C127.116 41.9023 127.038 41.837 126.951 41.7861C126.847 41.7248 126.738 41.67 126.627 41.6219L126.258 41.4659C126.13 41.4098 126.007 41.3454 125.888 41.273C125.767 41.2058 125.658 41.1199 125.564 41.0185C125.466 40.9172 125.388 40.799 125.334 40.6695C125.273 40.5155 125.244 40.3507 125.248 40.1851C125.243 39.9874 125.286 39.7914 125.375 39.6145C125.456 39.4534 125.572 39.313 125.716 39.204C125.867 39.0926 126.039 39.0105 126.221 38.9618C126.423 38.9083 126.631 38.8821 126.84 38.8838C126.954 38.8838 127.068 38.8921 127.181 38.9084C127.287 38.9227 127.391 38.9447 127.493 38.9741C127.583 38.9986 127.671 39.0302 127.756 39.0685C127.811 39.0893 127.862 39.1184 127.908 39.1547C127.927 39.1727 127.944 39.1934 127.957 39.2163C127.967 39.2357 127.974 39.2565 127.978 39.2779C127.982 39.3119 127.982 39.3465 127.978 39.3805C127.978 39.4216 127.978 39.4708 127.978 39.5324C127.978 39.594 127.978 39.6556 127.978 39.7048C127.974 39.7436 127.967 39.782 127.957 39.8198C127.951 39.8445 127.938 39.8672 127.92 39.8854C127.9 39.8923 127.878 39.8923 127.859 39.8854C127.812 39.8787 127.767 39.8619 127.727 39.8362L127.514 39.7295C127.417 39.6872 127.317 39.6529 127.214 39.6268C127.094 39.593 126.969 39.5764 126.845 39.5776C126.752 39.5758 126.659 39.5882 126.57 39.6145C126.498 39.6353 126.431 39.6702 126.372 39.7171C126.321 39.7569 126.28 39.8091 126.253 39.869C126.229 39.9304 126.216 39.9959 126.216 40.062C126.214 40.1569 126.244 40.2498 126.303 40.3247C126.368 40.4014 126.446 40.4665 126.533 40.5177C126.638 40.5791 126.748 40.6326 126.861 40.6778L127.235 40.8379C127.364 40.8925 127.491 40.9556 127.612 41.0267C127.731 41.0965 127.84 41.1821 127.937 41.2812C128.043 41.3887 128.127 41.5171 128.182 41.6584C128.237 41.7996 128.263 41.9507 128.257 42.1022V42.1104Z" fill="white"/>
<path d="M137.337 41.1539C137.342 41.4936 137.292 41.8319 137.189 42.1556C137.099 42.436 136.949 42.6936 136.75 42.911C136.551 43.121 136.305 43.2813 136.032 43.3789C135.715 43.4946 135.38 43.5503 135.042 43.5432C134.714 43.55 134.387 43.5029 134.074 43.4036C133.815 43.3253 133.579 43.1843 133.388 42.9931C133.196 42.79 133.055 42.5436 132.978 42.2747C132.878 41.9392 132.831 41.5902 132.838 41.2402C132.833 40.9059 132.883 40.5731 132.986 40.2549C133.075 39.9764 133.225 39.7211 133.425 39.5078C133.626 39.2991 133.871 39.1391 134.143 39.0398C134.462 38.9239 134.798 38.8682 135.137 38.8756C135.46 38.8704 135.781 38.9161 136.089 39.0111C136.349 39.0902 136.586 39.231 136.779 39.4216C136.969 39.625 137.109 39.8694 137.189 40.1359C137.292 40.4653 137.342 40.8089 137.337 41.1539ZM136.323 41.1991C136.325 40.9827 136.304 40.7667 136.262 40.5546C136.231 40.3752 136.163 40.2044 136.061 40.0538C135.967 39.9151 135.838 39.8044 135.687 39.7336C135.502 39.6525 135.302 39.6133 135.1 39.6186C134.894 39.6124 134.69 39.6561 134.505 39.7459C134.35 39.8264 134.218 39.9434 134.119 40.0866C134.017 40.2369 133.946 40.4057 133.909 40.5833C133.868 40.7817 133.847 40.9841 133.848 41.1868C133.846 41.41 133.866 41.6328 133.909 41.8518C133.935 42.0293 133.997 42.1996 134.09 42.3527C134.183 42.4915 134.312 42.6022 134.464 42.6729C134.651 42.7513 134.852 42.7878 135.055 42.7796C135.26 42.7864 135.464 42.7442 135.65 42.6564C135.805 42.576 135.937 42.4591 136.036 42.3157C136.137 42.1621 136.208 41.9908 136.245 41.8108C136.293 41.6102 136.319 41.4051 136.323 41.1991V41.1991Z" fill="white"/>
<path d="M145.736 43.342C145.741 43.3636 145.741 43.3861 145.736 43.4077C145.718 43.4297 145.694 43.4455 145.667 43.4529C145.613 43.4679 145.558 43.4762 145.502 43.4775H144.969C144.918 43.4743 144.869 43.4646 144.821 43.4488C144.792 43.4403 144.766 43.4231 144.747 43.3995C144.729 43.3797 144.716 43.3557 144.71 43.3297L144.3 42.3198C144.25 42.209 144.197 42.1064 144.148 42.0161C144.103 41.9362 144.049 41.8618 143.988 41.7944C143.927 41.7371 143.856 41.6924 143.778 41.663C143.692 41.63 143.6 41.6147 143.507 41.6178H143.204V43.3379C143.209 43.3581 143.209 43.3793 143.204 43.3995C143.181 43.4218 143.152 43.4375 143.121 43.4446C143.075 43.4586 143.026 43.4682 142.978 43.4734C142.898 43.4782 142.819 43.4782 142.74 43.4734C142.662 43.4779 142.584 43.4779 142.506 43.4734C142.456 43.4681 142.406 43.4586 142.358 43.4446C142.328 43.4376 142.301 43.4219 142.28 43.3995C142.268 43.3812 142.261 43.3599 142.259 43.3379V39.2328C142.256 39.192 142.261 39.151 142.275 39.1127C142.29 39.0743 142.312 39.0396 142.341 39.0111C142.4 38.9647 142.472 38.94 142.547 38.9413H143.778H144.086H144.308C144.484 38.9644 144.656 39.0099 144.821 39.0768C144.973 39.1298 145.113 39.2136 145.231 39.3231C145.339 39.4225 145.423 39.5445 145.478 39.6802C145.534 39.8326 145.562 39.994 145.56 40.1564C145.561 40.2953 145.541 40.4336 145.502 40.5669C145.42 40.8128 145.253 41.021 145.03 41.1539C144.902 41.2315 144.764 41.291 144.62 41.3305C144.689 41.3623 144.755 41.4008 144.817 41.4454C144.883 41.4954 144.942 41.5533 144.993 41.6178C145.053 41.6876 145.105 41.7633 145.149 41.8436C145.203 41.9365 145.251 42.0324 145.293 42.131L145.704 43.0218C145.731 43.0848 145.756 43.1492 145.777 43.2147C145.772 43.2594 145.758 43.3027 145.736 43.342ZM144.505 40.2796C144.508 40.1458 144.471 40.0141 144.398 39.9019C144.312 39.7904 144.188 39.7144 144.049 39.6884C143.994 39.6739 143.938 39.6642 143.881 39.6597C143.795 39.6543 143.708 39.6543 143.622 39.6597H143.187V40.9405H143.68C143.802 40.942 143.923 40.9268 144.041 40.8953C144.135 40.867 144.223 40.8211 144.3 40.7599C144.366 40.7061 144.418 40.6371 144.451 40.5587C144.483 40.4763 144.497 40.3882 144.493 40.3001L144.505 40.2796Z" fill="white"/>
<path d="M153.598 39.3231C153.602 39.3805 153.602 39.4381 153.598 39.4955C153.595 39.5352 153.585 39.574 153.569 39.6104C153.561 39.6364 153.545 39.6592 153.524 39.6761C153.505 39.6818 153.485 39.6818 153.466 39.6761H152.276V43.3174C152.275 43.3401 152.266 43.3619 152.251 43.379C152.229 43.4013 152.2 43.4169 152.169 43.4241C152.121 43.438 152.071 43.4477 152.021 43.4529C151.943 43.4576 151.865 43.4576 151.787 43.4529C151.711 43.4575 151.634 43.4575 151.557 43.4529C151.506 43.4481 151.455 43.4384 151.406 43.4241C151.376 43.4171 151.349 43.4014 151.328 43.379C151.312 43.3619 151.304 43.3401 151.303 43.3174V39.6761H150.1C150.08 39.6824 150.059 39.6824 150.039 39.6761C150.018 39.6582 150.003 39.6356 149.993 39.6104C149.979 39.5737 149.971 39.5349 149.969 39.4955C149.964 39.4382 149.964 39.3804 149.969 39.3231C149.964 39.2643 149.964 39.2053 149.969 39.1465C149.971 39.1059 149.979 39.0658 149.993 39.0275C150.003 39.0035 150.018 38.9823 150.039 38.9659C150.059 38.9596 150.08 38.9596 150.1 38.9659H153.454C153.473 38.9602 153.493 38.9602 153.511 38.9659C153.533 38.9812 153.548 39.0027 153.557 39.0275C153.572 39.0655 153.582 39.1056 153.585 39.1465C153.594 39.205 153.598 39.264 153.598 39.3231V39.3231Z" fill="white"/>
<path d="M119.188 46.1212L120.1 47.9685L122.144 48.2682L120.666 49.7091L121.015 51.7411L119.188 50.7805L117.362 51.7411L117.711 49.7091L116.233 48.2682L118.277 47.9685L119.188 46.1212Z" fill="white"/>
<path d="M126.705 46.1212L127.62 47.9685L129.661 48.2682L128.183 49.7091L128.532 51.7411L126.705 50.7805L124.878 51.7411L125.227 49.7091L123.749 48.2682L125.794 47.9685L126.705 46.1212Z" fill="white"/>
<path d="M135.084 46.1212L135.999 47.9685L138.039 48.2682L136.561 49.7091L136.91 51.7411L135.084 50.7805L133.257 51.7411L133.606 49.7091L132.128 48.2682L134.172 47.9685L135.084 46.1212Z" fill="white"/>
<path d="M143.836 46.1212L144.747 47.9685L146.787 48.2682L145.314 49.7091L145.658 51.7411L143.836 50.7805L142.009 51.7411L142.354 49.7091L140.88 48.2682L142.92 47.9685L143.836 46.1212Z" fill="white"/>
</g>
<defs>
<clipPath id="clip0_41_402">
<rect width="154" height="51.7411" fill="white"/>
</clipPath>
</defs>
</svg>
